<svg xmlns="http://www.w3.org/2000/svg" width="400" height="300" fill="none" viewBox="0 0 400 300">
  <g class="Girl exploring map">
    <path fill="#e6eff9" d="M396.5 287.66H29.28s-14.955-8.5-4.5-29.415C41.05 225.71 64.235 284.67 89.23 282.2c79.27-7.84 158.27-130.355 187.965-63.33 29.695 67.025 60.435 60.05 82.865 38.5 22.43-21.55 36.44 30.29 36.44 30.29Z" class="shade10"/>
    <path fill="#121212" d="M396.5 287.3H19.875v.5H396.5v-.5Zm-69-19.3a20.08 20.08 0 0 1-7.525-1.445c-8.685-3.475-19.14-15.975-31.075-37.15-8.875-15.75-15.285-30.675-15.35-30.825l.46-.195c.255.595 25.67 59.5 46.15 67.705 5.905 2.36 12.465 1.75 19.5-1.82 9.9-5.03 18.64-14.885 23.385-22.46-2.065-1.375-3.795-2.93-4.79-4.645a5.93 5.93 0 0 1-.71-4.705c1.45-5.28 4.57-7.04 6.86-6.43 2.195.585 3.97 3.5 2.685 8.5-.455 1.78-1.625 4.27-3.365 7.095 6.635 4.24 16.5 6.775 16.655 6.81l-.125.5c-.54-.135-10.195-2.61-16.8-6.85-4.8 7.65-13.6 17.575-23.57 22.635-4.33 2.16-8.47 3.28-12.385 3.28Zm36-41.585c-1.94 0-4.28 1.815-5.5 6.175a5.47 5.47 0 0 0 .66 4.325c.95 1.63 2.62 3.125 4.63 4.46 1.7-2.77 2.845-5.205 3.29-6.95 1.2-4.69-.365-7.39-2.33-7.91a2.943 2.943 0 0 0-.75-.125v.025ZM7.155 253.265c-3.11-6.5-3.5-12.245-1.13-17.055 4.27-8.7 16.205-11.355 16.325-11.38l.105.5c-.12.025-11.82 2.635-16 11.115-2.29 4.67-1.91 10.26 1.13 16.615l-.43.205ZM44.47 126.27c-2.34-1.705-4.76-3.265-7.105-4.77-2.56-1.655-5.21-3.36-7.73-5.24l.3-.4c2.5 1.87 5.145 3.57 7.7 5.22 2.35 1.5 4.78 3.075 7.13 4.785l-.295.405Zm13.98-6.955c-.77-2-1.665-4.06-2.53-6.055-1.31-3.025-2.665-6.155-3.725-9.315l.5-.16c1.055 3.14 2.405 6.26 3.71 9.28.865 2 1.76 4.065 2.535 6.07l-.49.18ZM36.265 136.9c-.685 0-2.57-.1-5.38-.25-2.465-.13-5.255-.27-5.54-.24l-.065-.5c.305-.045 2.33.065 5.63.24 2.465.13 5.255.27 5.54.24l.065.5-.25.01Z" class="shade90"/>
    <path fill="#ffffff" d="M256.605 82.16s13.5-3.625 14.805-3.5c1.305.125 8.13 22.5 4.21 28.305-3.92 5.805-12.92-8.71-12.92-8.71" class="shade0"/>
    <path fill="#121212" d="M273.305 108.605h-.06c-4.435-.085-10.5-9.785-10.755-10.2l.425-.26c.06.1 6.175 9.88 10.34 9.96a2.418 2.418 0 0 0 2.16-1.26c1.75-2.595 1.5-9.44-.7-18.305-1.36-5.5-2.9-9.37-3.36-9.62-.875-.09-9.275 2.03-14.685 3.5l-.13-.5c1.355-.365 13.055-3.5 14.8-3.5h.1c.205 0 .47.195 1 1.295 2.145 4.645 6.895 22.235 3.41 27.4a3.002 3.002 0 0 1-2.545 1.49ZM240.73 43.35s2.84 5.615 1.31 8.47c-1.53 2.855-4.76 1.34-4.76 1.34L235.5 50l1.865-3.315" class="shade90"/>
    <path fill="#121212" d="M219.445 51.29s4.62 2.5 6.945 4.5 4.925-.18 4.925-.18a7.601 7.601 0 0 0 5.185 1.225c1.6-.22 3.195-.5 4.76-.855a18.206 18.206 0 0 0 2-.865 27.277 27.277 0 0 0 2.71-2c.57-.77 1.101-1.567 1.59-2.39.155-2.325-.255-5.14-2.37-7.425-3.605-3.89-5.055-2.965-5.475-2.475.555-.875 2.405-4.5-1.375-9.55-4.355-5.805-23-1.38-22.11 7.46.89 8.84 3.215 12.555 3.215 12.555Z" class="shade90"/>
    <path fill="#ffffff" d="M222.08 47.765s2.5.415 4 6.325-23.525 30.67-28.265 34.41c-4.74 3.74-35.96-8.335-35.96-8.335L163 74.94s21.285.375 25.335 1c4.05.625 4.615.5 4.615.5s16.535-20.875 24.295-27.5a6.08 6.08 0 0 1 4.5-1.44h.03" class="shade0"/>
    <path fill="#121212" d="M194.605 89.465c-9.31 0-31.74-8.63-32.84-9.06l-.2-.075 1.235-5.64h.2c.87 0 21.35.38 25.37 1 3.185.5 4.185.5 4.445.5 1.15-1.445 16.82-21.095 24.265-27.46a6.396 6.396 0 0 1 4.675-1.5v.5a5.87 5.87 0 0 0-4.33 1.38c-7.655 6.545-24.1 27.265-24.265 27.475l-.05.065h-.085c-.06 0-.725.14-4.71-.475-3.78-.575-22.895-.945-25.1-1L162.145 80c2.31.885 23.77 9 32.455 9 1.39 0 2.455-.21 3.06-.69 4.925-3.895 29.615-28.5 28.175-34.16-1.44-5.66-3.775-6.15-3.795-6.15l.08-.5c.11 0 2.68.5 4.2 6.5 1.575 6.215-24.355 31.5-28.35 34.675-.675.56-1.845.79-3.365.79Z" class="shade90"/>
    <path fill="#ffffff" d="M163.055 72.59a45.256 45.256 0 0 1-4.405-3.845c-1.445-1.575-2.095-2.63-2.555-2.44-.38.155-1.11 1.61 1.04 4.38.181.203.382.387.6.55" class="shade0"/>
    <path fill="#121212" d="M162.9 72.79a45.94 45.94 0 0 1-4.435-3.875c-.42-.455-.77-.87-1.07-1.225-.5-.57-1.045-1.215-1.205-1.155a.684.684 0 0 0-.23.41c-.105.415-.18 1.585 1.375 3.59.11.13.234.248.37.35l.195.165-.335.37-.175-.15a2.743 2.743 0 0 1-.45-.43c-1.64-2.115-1.615-3.435-1.46-4.035a1.052 1.052 0 0 1 .5-.73c.5-.205.95.325 1.775 1.29.295.35.645.76 1.06 1.21a44.56 44.56 0 0 0 4.37 3.815l-.285.4Z" class="shade90"/>
    <path fill="#ffffff" d="M165.855 74.97a20.338 20.338 0 0 0-7.73-4.405c-4.41-1.21-9.625-4.255-11.57-3.12-1.945 1.135 8.09 5.055 8.09 5.055s-.28.085-1.5 4.5c-.1.36.22.845.69 1.34a6.948 6.948 0 0 0 4.71 2.095c.935.04 2 .085 2.75.1 1.76.03 4.83 1.235 4.83 1.235" class="shade0"/>
    <path fill="#121212" d="M166.05 82c-.03 0-3.05-1.185-4.74-1.215-.65 0-1.58-.05-2.76-.105a7.14 7.14 0 0 1-4.885-2.17c-.615-.645-.86-1.16-.75-1.575a31.811 31.811 0 0 1 1.37-4.305c-7.705-3.075-8.195-4.5-8.215-4.785a.632.632 0 0 1 .36-.605c1.38-.805 4.035.235 7.11 1.445a49.162 49.162 0 0 0 4.65 1.65 20.252 20.252 0 0 1 7.835 4.465l-.345.36c-.035-.035-3.33-3.17-7.62-4.345a48.742 48.742 0 0 1-4.705-1.665c-2.83-1.11-5.5-2.16-6.675-1.5-.12.07-.115.12-.11.14.065.875 4.815 3.135 8.165 4.465l.66.26-.6.185c-.1.165-.465.945-1.395 4.35-.03.1-.025.41.63 1.095a6.656 6.656 0 0 0 4.54 2c1.18.05 2.1.085 2.745.1 1.785.03 4.79 1.2 4.915 1.25l-.18.505Z" class="shade90"/>
    <path fill="#ffffff" d="M154.83 72.34s-10.235-3.375-10.545-2.5c-.8 2.27 10.08 4.83 10.08 4.83" class="shade0"/>
    <path fill="#121212" d="M154.305 74.91c-.365-.085-9-2.135-10.16-4.28a1.004 1.004 0 0 1-.095-.87c.26-.735 3.91.05 10.855 2.34l-.155.5c-4.555-1.5-9.58-2.87-10.24-2.61a.58.58 0 0 0 .07.425c.89 1.62 7.405 3.46 9.84 4.035l-.115.46Z" class="shade90"/>
    <path fill="#ffffff" d="M154.6 74.765s-9.72-3.635-10.03-2.76c-.795 2.27 9.565 5.085 9.565 5.085" class="shade0"/>
    <path fill="#121212" d="M154.07 77.335c-.345-.095-8.5-2.335-9.645-4.5a1.09 1.09 0 0 1-.09-.895.413.413 0 0 1 .22-.235c1.075-.5 8.63 2.275 10.135 2.84l-.19.455c-4.3-1.605-9.06-3.1-9.72-2.86a.582.582 0 0 0 .075.455c.865 1.65 7.03 3.635 9.335 4.26l-.12.48Z" class="shade90"/>
    <path fill="#ffffff" d="M154.18 76.545s-8.205-2.4-8.5-1.5c-.8 2.265 9.315 3.9 9.315 3.9" class="shade0"/>
    <path fill="#121212" d="M154.94 79.17c-.335-.055-8.23-1.345-9.405-3.325a1.051 1.051 0 0 1-.105-.905c.32-.905 4.975.24 8.82 1.365l-.14.5c-3.615-1.055-7.785-2-8.23-1.645a.575.575 0 0 0 .085.45c.88 1.475 6.835 2.73 9.055 3.09l-.08.47Zm76.56-34.515s1.545 4 3.87 6 4.925-.18 4.925-.18a7.63 7.63 0 0 0 5.205 1.235c1.6-.225 3.195-.5 4.76-.86.683-.248 1.35-.535 2-.86a28.319 28.319 0 0 0 2.71-2c.57-.77 1.101-1.567 1.59-2.39.155-2.325-.255-5.14-2.37-7.425-3.605-3.89-5.055-2.965-5.475-2.5.555-.875 2.405-4.5-1.375-9.55-4.355-5.805-23-1.38-22.11 7.46.89 8.84 6.27 11.07 6.27 11.07Z" class="shade90"/>
    <path fill="#ffffff" d="M231.385 51.35s10.705-2.66 21.15-1.21c10.445 1.45 17.5 36.5 22.72 53.675 5.22 17.175-30.815 27.565-40.755 20.555-9.94-7.01-3.115-73.02-3.115-73.02Z" class="shade0"/>
    <path fill="#121212" d="M243.91 126.83c-3.95 0-7.355-.715-9.535-2.26-4.19-2.955-6-16.195-5.395-39.35.45-17.185 2.14-33.73 2.155-33.895v-.175l.17-.045c.105 0 10.87-2.655 21.245-1.215 8.58 1.195 14.725 23.935 19.665 42.21 1.155 4.275 2.245 8.315 3.255 11.645 1.185 3.885.95 9.7-6.88 15.355-6.71 4.86-16.78 7.73-24.68 7.73Zm-12.295-75.28c-.38 3.8-6.395 65.94 3.045 72.615 6.41 4.5 23.71 1.715 33.655-5.47 4.19-3 8.755-8.05 6.7-14.805-1-3.34-2.11-7.38-3.265-11.66-4.64-17.175-11-40.695-19.25-41.845-9.56-1.325-19.47.84-20.885 1.165Z" class="shade90"/>
    <path fill="#121212" d="M256.19 68.35a7.694 7.694 0 0 0-.605-1.2c-.145-.25-.285-.5-.39-.7-.145-.5-.265-.93-.39-1.375-1-3.565-1.925-6.93-4.47-9.75l.375-.335c2.62 2.905 3.615 6.5 4.575 9.95l.375 1.33.355.63c.261.412.48.85.655 1.305l-.48.145Zm-24.75 44.035c-1.285-3.635-1.575-7.7-1.855-11.63-.28-11.545.26-22.585.94-34.78l.5.025c-.675 12.19-1.215 23.215-.935 34.73.28 3.885.565 7.915 1.825 11.5l-.475.155Zm24.495 2.215-.22-.45c4.635-2.235 9.725-7.16 8.84-13.665a21.457 21.457 0 0 0-1.5-5.17c-.27-.705-.54-1.43-.79-2.175-.55-2.295-1-4.555-1.46-6.74-.755-3.665-1.465-7.125-2.5-10.675l.5-.14c1.055 3.57 1.77 7.04 2.5 10.71.445 2.185.91 4.44 1.45 6.71.24.715.5 1.435.775 2.135a21.499 21.499 0 0 1 1.5 5.285c.94 6.765-4.315 11.865-9.095 14.175Z" class="shade90"/>
    <path fill="#e6eff9" d="M227.8 40.935a27.3 27.3 0 0 0 .26-.55 48.216 48.216 0 0 0 1.5-3.65c.5-1.315.92-2.65 1.315-4l.345-1.225.21-.88c.375-1.605.705-3.215 1-4.83-4.04 1.63-7.205 4.5-6.835 8.2.191 2.45.946 4.824 2.205 6.935Z" class="shade10"/>
    <path fill="#121212" d="m227.83 41.455-.24-.39a16.32 16.32 0 0 1-2.225-7.035c-.34-3.395 2.275-6.555 7-8.46l.425-.17-.085.45c-.34 1.805-.67 3.385-1 4.84-.07.295-.14.59-.215.885l-.115.41c-.09.325-.185.68-.23.825a58.606 58.606 0 0 1-1.325 4c-.47 1.255-1 2.5-1.5 3.67l-.21.455-.28.52Zm4.285-15.245c-4.23 1.83-6.56 4.71-6.255 7.77a16.29 16.29 0 0 0 1.915 6.425l.06-.12c.5-1.135 1.025-2.36 1.5-3.635.475-1.275.905-2.6 1.31-4 .045-.14.14-.5.23-.815l.11-.4c.07-.285.145-.58.21-.875.305-1.305.615-2.74.92-4.35Z" class="shade90"/>
    <path fill="#ffffff" d="M237.795 77.455 237.2 90l-20.15 1.285-.565-17.065" class="shade0"/>
    <path fill="#121212" d="m216.805 91.55-.57-17.32.5-.015.555 16.805 19.675-1.255.58-12.325.5.025-.605 12.77-20.635 1.315Z" class="shade90"/>
    <path fill="#ffffff" d="m206.145 188-5.575 83.795 11.615 7.695 12.535-90.51-18.575-.98Z" class="shade0"/>
    <path fill="#121212" d="m212.38 279.915-12.065-8v-.145l5.59-84.045 19.09 1-.04.27-12.575 90.92Zm-11.55-8.25L212 279.06l12.445-89.845-18.055-.955-5.56 83.405Z" class="shade90"/>
    <path fill="#8ab6e5" d="M212.5 231.8c-3.084-.08-6.17-.188-9.26-.325l-2.685 40.32 11.63 7.705 6.585-47.555-6.27-.145Z" class="shade40"/>
    <path fill="#121212" d="m212.38 279.915-12.065-8v-.145L203 231.215h.245c2.915.13 5.94.235 9.255.32 2.085.055 4.17.095 6.255.135h.28l-6.655 48.245Zm-11.55-8.25L212 279.06l6.5-46.88c-2-.04-4-.083-6-.13-3.23-.085-6.18-.185-9-.31l-2.67 39.925Z" class="shade90"/>
    <path fill="#ffffff" d="m205.75 194.255.395-6.255s1.76-52.73 4.155-66.67c2.395-13.94 25.475-4.57 25.475-4.57s-5.3 43.55-11.43 74.77" class="shade0"/>
    <path fill="#121212" d="m206 194.27-.5-.035.395-6.25c0-.5 1.785-52.9 4.155-66.695.5-2.92 1.94-5.055 4.275-6.355 3.09-1.72 7.665-2 13.585-.75a51.42 51.42 0 0 1 7.96 2.345l.175.07v.19c-.05.435-5.365 43.915-11.43 74.79l-.5-.095c5.85-29.805 11-71.375 11.4-74.565-1.645-.63-14.235-5.275-20.93-1.55-2.195 1.225-3.55 3.245-4.025 6-2.365 13.76-4.13 66.105-4.15 66.63l-.41 6.27Z" class="shade90"/>
    <path fill="#121212" d="m205.745 194.128-.094.491 4.548.87.094-.491-4.548-.87Z" class="shade90"/>
    <path fill="#ffffff" d="m257.2 188 5.575 83.795-12.52 7.005-11.625-89.82 18.57-.98Z" class="shade0"/>
    <path fill="#121212" d="m250.055 279.195-11.71-90.45 19.09-1v.245l5.585 83.955-12.965 7.25Zm-11.145-90 11.545 89.205 12.045-6.745-5.55-83.395-18.04.935Z" class="shade90"/>
    <path fill="#8ab6e5" d="M253.38 232c-3.06.03-6.118.053-9.175.07l6.05 46.73 12.5-7-2.655-39.895c-2.23.036-4.47.068-6.72.095Z" class="shade40"/>
    <path fill="#121212" d="m250.055 279.2-6.13-47.375h.28c3.06 0 6.116-.024 9.17-.07 2.25-.027 4.496-.06 6.74-.1h.24v.235l2.665 40.055-12.965 7.255Zm-5.555-46.88 5.965 46.08 12.035-6.745-2.63-39.5c-2.164.033-4.33.065-6.5.095-2.954.03-5.91.053-8.87.07Z" class="shade90"/>
    <path fill="#ffffff" d="m257.5 192.97-.3-4.97s-1.755-52.73-4.15-66.67c-2.395-13.94-24.605 16.335-24.605 16.335s4.425 22.645 10.56 53.865" class="shade0"/>
    <path fill="#121212" d="m257.225 193-.275-5c0-.535-1.785-52.88-4.15-66.64-.335-1.975-1.1-3.115-2.275-3.39-2.525-.59-7.1 2.625-13.23 9.315-4.34 4.745-8.055 9.705-8.585 10.425.335 1.72 4.65 23.785 10.54 53.76l-.5.095a59117.16 59117.16 0 0 1-10.56-53.87v-.105l.065-.09c.65-.88 15.895-21.55 22.4-20 1.385.325 2.28 1.6 2.655 3.79 2.37 13.795 4.14 66.175 4.155 66.7l.275 4.965-.515.045Zm-5.223.679-4.537.88.095.49 4.537-.88-.095-.49Z" class="shade90"/>
    <path fill="#e6eff9" d="M206.825 152.54a61.637 61.637 0 0 0 5.83 2.405c.875.305 1.765.57 2.655.835l.18.04c.44.095.885.19 1.325.275 3.14.59 6.34.655 9.5.9 2.785.215 5.57.4 8.365.44h.32l3.27-37.655-5.5-31.425-16.055.5c-4.1 7.33-6.085 14.29-6.76 22.67l-4.38 40.42 1.25.595Z" class="shade10"/>
    <path fill="#121212" d="M234.7 157.685c-2.855-.04-5.72-.235-8.39-.44-.8-.06-1.6-.11-2.4-.16a58.755 58.755 0 0 1-7.14-.745 42.25 42.25 0 0 1-1.335-.28l-.155-.03c-1-.29-1.85-.55-2.71-.85a59.505 59.505 0 0 1-5.85-2.415l-1.255-.61-.16-.08v-.17l4.4-40.405c.69-8.58 2.785-15.605 6.79-22.765l.07-.125 16.415-.5 5.5 31.67v.03l-3.285 37.88-.495-.005Zm-27.765-5.375a58.633 58.633 0 0 0 5.8 2.4c.85.295 1.7.55 2.645.83l.165.035c.435.095.875.19 1.32.27 2.34.395 4.703.642 7.075.74.805.05 1.605.1 2.41.16 2.66.205 5.5.4 8.35.44h.05l3.245-37.4-5.435-31.175-15.695.475c-3.925 7.055-6 14-6.665 22.445l-4.36 40.255 1.095.525Z" class="shade90"/>
    <path fill="#ffffff" d="M227.5 155.395c-9.28 0-21.475-6-21.6-6.05l.22-.45c.125.06 12.5 6.135 21.7 6v.5h-.32Z" class="shade0"/>
    <path fill="#e6eff9" d="M216.47 88.815c7.59.41 20.95-1.825 20.95-1.825s11.84 5.39 14.045 16.9c.825 4.32 4.795 25.68 9.43 50.675-2 1.11-3.97 2.2-6 3.24-3.5 1.825-19.31 1.715-22.42 1.8a95.269 95.269 0 0 1-6.95-.36l2.615-45.68-6.39-3.5" class="shade10"/>
    <path fill="#121212" d="M232.5 159.855a96.59 96.59 0 0 1-6.975-.36l-.245-.025v-.24l2.605-45.5-6.25-3.41.24-.435 6.525 3.56v.155l-2.595 45.4c2.195.19 4.44.305 6.685.34l1.97-.03c5.195-.06 17.36-.2 20.335-1.74 1.8-.93 3.705-1.96 5.82-3.15-3.795-20.46-8.5-45.75-9.395-50.5-2.07-10.8-12.875-16.225-13.835-16.685-1.11.18-13.7 2.205-20.93 1.815v-.5c7.5.405 20.77-1.8 20.9-1.82h.075l.07.035c.12.055 12 5.575 14.185 17.08.91 4.76 5.63 30.185 9.43 50.675l.03.175-.155.085a178.015 178.015 0 0 1-6 3.25c-3.08 1.595-15.33 1.735-20.56 1.795l-1.93.03Z" class="shade90"/>
    <path fill="#ffffff" d="M275.69 287.18h-30.585s-1.635-4.665-1.635-8.255c0-3.59 4.03-11.54 4.03-11.54h14.855a34.468 34.468 0 0 0 3.7 3.865c2.68 2.365 6.15 4.925 7.73 7.295a12.283 12.283 0 0 1 1.905 8.635Z" class="shade0"/>
    <path fill="#121212" d="M275.895 287.43h-30.97l-.055-.165c-.07-.19-1.65-4.745-1.65-8.34 0-3.595 3.89-11.325 4.055-11.65l.07-.14H262.5l.075.095a34.674 34.674 0 0 0 3.675 3.835c.675.6 1.42 1.225 2.14 1.825 2.18 1.83 4.43 3.715 5.63 5.5a12.417 12.417 0 0 1 1.94 8.83l-.065.21Zm-30.61-.5H275.5a12.223 12.223 0 0 0-1.9-8.245c-1.16-1.74-3.385-3.605-5.535-5.41-.725-.605-1.47-1.235-2.155-1.835a35.894 35.894 0 0 1-3.655-3.805h-14.6c-.53 1.07-3.935 8.055-3.935 11.29 0 3.13 1.28 7.145 1.565 8.005Z" class="shade90"/>
    <path fill="#8ab6e5" d="M245.5 285.5c.135.76.22 1.37.22 1.37h29.365s.05-.61.09-1.37H245.5Z" class="shade40"/>
    <path fill="#121212" d="M275.69 282.16h-31.13v.5h31.13v-.5Zm-17.075-4.015-.355-.345c.065-.07 6.685-6.71 13.96-1.415l-.295.4c-6.925-5.035-13.245 1.3-13.31 1.36Z" class="shade90"/>
    <path fill="#ffffff" d="M263.78 269.29s-1.66-4.665-1.825-8.17c-.165-3.505.665-6.62-.415-7.205s-9.37.195-11.275.195c-1.43 0-.815 6.14 0 10.45a2.418 2.418 0 0 1-2.77 2.825" class="shade0"/>
    <path fill="#121212" d="M263.545 269.37c-.07-.19-1.675-4.74-1.84-8.24a33.631 33.631 0 0 1 .075-3.62c.1-1.655.185-3.08-.36-3.375-.695-.375-5.335-.095-8.11.075-1.325.08-2.475.15-3.045.15a.262.262 0 0 0-.113.031.245.245 0 0 0-.087.079c-.77.93-.345 5.865.45 10.04a2.624 2.624 0 0 1-.71 2.35 2.68 2.68 0 0 1-2.345.775l.08-.5a2.17 2.17 0 0 0 2.5-2.535c-.625-3.285-1.4-9.18-.345-10.455a.752.752 0 0 1 .585-.29c.555 0 1.695-.07 3-.15 4.135-.25 7.62-.425 8.38 0 .76.425.74 1.87.62 3.845a32.618 32.618 0 0 0-.075 3.565c.165 3.43 1.795 8.055 1.81 8.1l-.47.155Z" class="shade90"/>
    <path fill="#478cd6" d="M215.395 54.34c-1.53 2.605-3.065 5.695-3.5 8.185-.9 5.365 2.665 7.5 2.665 7.5l-.655 12.415c7.53 3.5 18.185 2.87 26.565 2.25a11.64 11.64 0 0 1 .1-1.605c1.215-8.9 2.76-17.225 3.705-22.86C245.22 54.59 235 44.87 228 45.36c-3.835.27-6.2 1.335-7.56 2.245" class="shade50"/>
    <path fill="#121212" d="M229.91 85.41c-5.895 0-11.5-.63-16.09-2.755l-.15-.07.655-12.44c-.65-.46-3.475-2.78-2.66-7.66.355-2.125 1.54-4.905 3.5-8.27l.43.255c-1.945 3.31-3.105 6.035-3.45 8.095-.855 5.125 2.41 7.155 2.55 7.24l.13.075-.655 12.39c7.105 3.23 16.75 2.86 26.055 2.175.007-.47.042-.94.105-1.405.92-6.745 2.03-13.16 2.92-18.32.29-1.655.55-3.18.78-4.545.355-2.13-1-5.14-3.65-8.05-3.14-3.455-8.18-6.815-12.355-6.5-3.83.27-6.16 1.345-7.44 2.2l-.275-.415c1.33-.89 3.74-2 7.68-2.285 4.345-.295 9.54 3.135 12.76 6.68 2.785 3.065 4.16 6.15 3.775 8.465-.23 1.37-.5 2.895-.78 4.55-.895 5.155-2 11.57-2.92 18.305a10.779 10.779 0 0 0-.1 1.565v.235h-.235c-3.49.265-7.095.485-10.58.485Z" class="shade90"/>
    <path fill="#121212" d="M220.355 72.385c-.16 0-3.885-.345-5.925-2.5a.244.244 0 0 1-.054-.081.245.245 0 0 1 .054-.274.246.246 0 0 1 .27-.054c.03.012.058.03.08.054 1.915 2 5.57 2.345 5.605 2.35a.25.25 0 1 1 0 .5l-.03.005Z" class="shade90"/>
    <path fill="#ffffff" d="m222.94 47.265-.035-.075-2.55-9.365 6.24-4.62 7.12 13.685c-.33.155-10.15 19.055-10.4 19.45-1.79 2.805.35-17.285-.375-19.075Z" class="shade0"/>
    <path fill="#121212" d="M223 66.86a.313.313 0 0 1-.115 0c-.705-.225-.695-2.79-.3-10.92.19-3.87.385-7.875.11-8.56l.235-.09-.245.065-.03-.075-2.595-9.525 6.61-4.9L234.06 47l-.195.09c-.5.69-5.42 10.03-8.07 15.08-1.5 2.815-2.19 4.175-2.27 4.295-.165.265-.335.395-.525.395Zm.155-19.69c.3.74.175 3.81-.07 8.77-.195 4.035-.465 9.5-.065 10.36l.07-.095c.075-.125 1.035-1.95 2.25-4.26 6-11.395 7.585-14.345 8.07-15.065l-6.91-13.3-5.865 4.345 2.5 9.2s.025.025.035.045h-.015Z" class="shade90"/>
    <path fill="#121212" d="M226.63 38.5c0-1.71-.225-3.465-.295-5.1l-6 4.425 1.445 5.31c2.495-.255 4.02-2.135 4.85-4.635Z" class="shade90"/>
    <path fill="#ffffff" d="M223.195 21.415c-3.41-1.565-7.42-.13-9.375 3.125a17.303 17.303 0 0 0-2.32 8.85c-.115 9.39 10.65 13.055 14.025 3.72 2.59-7.145 2.475-13.495-2.33-15.695Z" class="shade0"/>
    <path fill="#121212" d="M219 42.785c-.378 0-.754-.033-1.125-.1-4.4-.8-6.655-5.28-6.605-9.295a17.634 17.634 0 0 1 2.35-9c2.06-3.425 6.23-4.81 9.695-3.22 4.5 2.06 5.395 7.895 2.465 16-1.515 4.17-4.325 5.615-6.78 5.615Zm1.305-21.755a7.36 7.36 0 0 0-6.255 3.64 17.072 17.072 0 0 0-2.28 8.725c-.06 5 3.07 8.23 6.195 8.795 2.5.45 5.72-.67 7.345-5.165 2.83-7.835 2.03-13.44-2.205-15.385a6.737 6.737 0 0 0-2.815-.61h.015Z" class="shade90"/>
    <path fill="#8ab6e5" d="M215.3 38.165s.5 1.205 2.225 1c1.725-.205 2-2.645 2-2.645s-1.355.06-1.865.13a.744.744 0 0 0-.27.085 2.308 2.308 0 0 1-.925.325.9.9 0 0 0-.7.39l-.465.715Z" class="shade40"/>
    <path fill="#ffffff" d="M214.84 33.075c0 .24.06 1.57 0 1.68-.35 1.055-.89 1.095-.3 1.605.395.345 1.185.095 1.745-.23" class="shade0"/>
    <path fill="#121212" d="M215.075 36.775a1 1 0 0 1-.675-.225c-.5-.43-.385-.72-.145-1.105a3.63 3.63 0 0 0 .37-.765c0-.09 0-.815-.025-1.16v-.44h.5v.43c.045.442.045.888 0 1.33a4.07 4.07 0 0 1-.42.87c-.17.28-.17.28.045.465.215.185.935.045 1.455-.255l.25.43a2.876 2.876 0 0 1-1.355.425Z" class="shade90"/>
    <path fill="#ffffff" d="M215.25 38.11h.08c.535-.035 3.635-.45 4.325-1.825 0 0-1.025 1.84-1.67 2.305-.645.465-2.735-.48-2.735-.48Z" class="shade0"/>
    <path fill="#121212" d="M217.445 38.965a6.766 6.766 0 0 1-2.295-.625l-.935-.425 1.095-.06c.655-.045 3.345-.46 4.06-1.58l.065-.115.44.23a.874.874 0 0 1-.08.145c-.25.44-1.08 1.83-1.665 2.255a1.174 1.174 0 0 1-.685.175Zm-1.19-.74c.66.215 1.335.335 1.58.155.291-.248.543-.538.75-.86a8.996 8.996 0 0 1-2.33.705Zm-3.384-4.955c.155-.024.256-.207.225-.41-.032-.201-.183-.345-.339-.321-.155.024-.256.207-.225.41.032.201.183.345.339.321Zm5.202-.137c.156-.025.256-.208.225-.41-.032-.202-.183-.346-.339-.322-.155.025-.256.208-.224.41.031.202.183.346.338.322Z" class="shade90"/>
    <path fill="#8ab6e5" d="M90.9 275.455c-10.835-17.18-21.4-33.87-31.9-50.62-4.085-6.53-8.105-13.11-11.93-19.795-17.55-30.665-1.1-68.335 33.545-75.68 21-4.45 38.845 2.375 51.555 19.615 12.56 17.025 14.395 36.07 3.705 54.525C122.11 227.265 107 250.25 92.46 273.565a23.38 23.38 0 0 1-1.56 1.89Zm.2-118.72a22.596 22.596 0 0 0-15.865 38.41 22.595 22.595 0 0 0 15.745 6.775c12.5.13 22.815-10.235 22.73-22.8a22.496 22.496 0 0 0-22.61-22.385Z" class="shade40"/>
    <path fill="#121212" d="m90.87 275.88-.18-.29-9.25-14.655c-7.8-12.35-15.165-24-22.65-35.965-4.79-7.65-8.58-13.94-11.94-19.805-8.5-14.81-9.455-31.97-2.695-47.07 6.685-14.93 19.955-25.5 36.41-29 21.09-4.47 39 2.345 51.805 19.71 6.355 8.615 9.925 17.65 10.62 26.86.71 9.415-1.61 18.815-6.9 27.945-9.675 16.705-20.185 33.3-30.355 49.345-4.295 6.785-8.74 13.795-13.06 20.725a8.004 8.004 0 0 1-.815 1l-.77.895-.22.305Zm1.9-147.6a58.17 58.17 0 0 0-12.105 1.325C64.375 133.06 51.23 143.52 44.61 158.3c-6.695 14.955-5.72 31.945 2.675 46.615 3.355 5.86 7.145 12.145 11.93 19.79 7.5 11.95 14.85 23.615 22.645 35.965l9.07 14.36.555-.635c.279-.3.535-.621.765-.96 4.32-6.935 8.75-13.935 13.065-20.73 10.185-16.04 20.685-32.63 30.345-49.325 10.45-18.045 9.175-36.81-3.69-54.26-10.15-13.765-23.545-20.84-39.2-20.84Zm-1.56 73.89H91a22.842 22.842 0 0 1-22.452-22.902 22.844 22.844 0 0 1 22.572-22.783h.035a22.805 22.805 0 0 1 21.091 14.123 22.795 22.795 0 0 1-5.041 24.877 22.504 22.504 0 0 1-15.995 6.685ZM91.1 157a22.345 22.345 0 0 0-.12 44.685 22 22 0 0 0 15.85-6.5A22.299 22.299 0 0 0 91.13 157h-.03Z" class="shade90"/>
    <path fill="#ffffff" d="M91.1 156.735a22.5 22.5 0 0 1 22.61 22.385c.085 12.565-10.25 22.93-22.73 22.8a22.595 22.595 0 0 1 .12-45.185Z" class="shade0"/>
    <path fill="#121212" d="M91.21 202.17H91a22.842 22.842 0 0 1-22.452-22.902 22.844 22.844 0 0 1 22.572-22.783h.035a22.802 22.802 0 0 1 21.091 14.123 22.795 22.795 0 0 1-5.041 24.877 22.51 22.51 0 0 1-15.995 6.685ZM91.1 157a22.34 22.34 0 0 0-22.076 22.283 22.344 22.344 0 0 0 21.956 22.402 22.001 22.001 0 0 0 15.85-6.5 22.301 22.301 0 0 0-3.258-34.424A22.29 22.29 0 0 0 91.13 157h-.03Z" class="shade90"/>
    <path fill="#ffffff" d="M176.1 287.365c4.39-.03 39.32-.215 39.32-.215a19.305 19.305 0 0 0 2.22-6c.5-3.115-2.53-11.895-2.53-11.895l-4.085 1.185a13.563 13.563 0 0 1-9.925-.94l-.345-3.61c-.27.1-.63.075-.81.3-4.81 6-13.095 7.755-19.42 9.67-1.315.4-2.46.74-3.42 1a5.136 5.136 0 0 0-3.64 5.91c.26 1.315.985 4.605 2.635 4.595Z" class="shade0"/>
    <path fill="#121212" d="M176.09 287.615c-1.89 0-2.63-3.58-2.87-4.755a5.404 5.404 0 0 1 3.815-6.2c.955-.28 2.105-.62 3.415-1 .78-.235 1.59-.47 2.415-.705 5.96-1.72 12.715-3.67 16.885-8.88.176-.183.412-.297.665-.32a1.32 1.32 0 0 0 .25-.06l.31-.115.36 3.8a13.303 13.303 0 0 0 9.62.84l4.315-1.255.075.225c.125.365 3.04 8.875 2.54 12a19.243 19.243 0 0 1-2.25 6.085l-.075.12h-.14s-34.925.185-39.32.215l-.01.005Zm24.445-21.39h-.035a.674.674 0 0 0-.37.135c-4.265 5.34-11.105 7.31-17.135 9.05a142.1 142.1 0 0 0-2.41.705c-1.31.395-2.46.74-3.42 1a4.893 4.893 0 0 0-3.465 5.615c.595 2.89 1.395 4.36 2.38 4.36 4.23-.03 36.75-.205 39.18-.215a18.923 18.923 0 0 0 2.115-5.79c.435-2.745-1.975-10.16-2.44-11.55l-3.855 1.12a13.801 13.801 0 0 1-10.08-.91l-.12-.06-.345-3.46Z" class="shade90"/>
    <path fill="#8ab6e5" d="M193.91 285.5a21.256 21.256 0 0 1-3.92.58c-5.155.215-10.31.325-15.465.465.47.349 1.046.526 1.63.5l39.32-.215s.24-.545.56-1.315l-22.125-.015Z" class="shade40"/>
    <path fill="#121212" d="m217.406 281.918-43.88.942.011.5 43.88-.942-.011-.5Z" class="shade90"/>
    <path fill="#ffffff" d="M199.45 269.205s5.205 1.615 6.785 3.85c0 0 .73-9.895 1-12 .27-2.105-7.34-4.5-7.255-2.075.085 2.425.205 7.265-2.33 9.875" class="shade0"/>
    <path fill="#121212" d="m206.43 273.765-.4-.565c-1.5-2.14-6.605-3.74-6.655-3.76l.15-.5c.2.06 4.58 1.44 6.5 3.455.165-2.21.725-9.59.97-11.375.055-.395-.295-.875-1-1.355-1.635-1.125-4.5-1.785-5.445-1.26a.569.569 0 0 0-.32.56c.075 2.195.245 7.33-2.4 10.06l-.355-.345c2.5-2.58 2.325-7.57 2.255-9.7a1.056 1.056 0 0 1 .58-1c1.23-.675 4.31.145 5.97 1.29.87.595 1.285 1.23 1.2 1.83-.28 2.05-1 11.865-1 11.96l-.05.705ZM212.765 26.6s.435-1.85 2.87-2.285c2.435-.435 5.875 1.235 7.4 2.94 1.525 1.705 1.09 4.28 1.27 4.68.18.4 1.455 3.085 3.63 2.94 2.175-.145 3.905-7.745 3.12-10.05-1.375-4.065-6.71-6.9-10.63-6.5-3.92.4-7.08 4.1-7.66 8.275Z" class="shade90"/>
    <path fill="#ffffff" d="M224.815 36.18c.57-.145 2.14-.425 2.59-2.825.5-2.675-2.545-2.69-3.16-.87" class="shade0"/>
    <path fill="#121212" d="m224.875 36.425-.12-.5h.08c.625-.155 1.925-.5 2.325-2.615.175-.945-.125-1.615-.805-1.795a1.61 1.61 0 0 0-1.855 1.05l-.47-.16a2.114 2.114 0 0 1 2.47-1.38c.745.195 1.44.92 1.17 2.375-.455 2.455-2.08 2.855-2.695 3l-.1.025Z" class="shade90"/>
    <path fill="#ffffff" d="M225.9 32.5s.97.735-.13 2.19Z" class="shade0"/>
    <path fill="#121212" d="m225.97 34.86-.4-.3c.91-1.205.255-1.78.175-1.845l.305-.395s1.155.905-.08 2.54Z" class="shade90"/>
    <path fill="#e6eff9" d="M207.88 30.68s3.11-1.865 4.9-1.915c1.79-.05 4.245 1.33 6.81 1.72 1.583.276 3.201.292 4.79.045.435-.095 5.13-2.465 5.13-2.465s-4.695-3.535-8-4.55c-3.305-1.015-8.325 1.355-8.325 1.355a18.888 18.888 0 0 1-2.32 2.08c-1.365 1.05-3.325 2.42-2.985 3.73Z" class="shade10"/>
    <path fill="#121212" d="m207.72 31.065-.085-.325c-.36-1.385 1.405-2.715 2.825-3.785l.27-.205a18.547 18.547 0 0 0 2.27-2.045l.08-.06c.21-.1 5.16-2.4 8.5-1.37 3.34 1.03 7.865 4.445 8.06 4.59l.32.24-.36.185c-.785.395-4.745 2.39-5.185 2.5-1.62.252-3.27.236-4.885-.045a20.468 20.468 0 0 1-3.465-.94c-1.225-.41-2.385-.805-3.3-.775-1.705.045-4.745 1.86-4.78 1.875l-.265.16Zm5.15-2.55c1.159.097 2.297.366 3.375.8 1.098.406 2.229.714 3.38.92a14.39 14.39 0 0 0 4.7.055c.285-.065 2.895-1.355 4.705-2.265-1.115-.81-4.865-3.43-7.58-4.27-3-.93-7.6 1.095-8.1 1.32-.714.756-1.49 1.45-2.32 2.075l-.27.205c-1.155.87-2.57 1.935-2.665 2.91.87-.5 3.18-1.71 4.675-1.75h.1Z" class="shade90"/>
    <path fill="#e6eff9" d="m213.455 23.445-.35 1.5a45.68 45.68 0 0 1 6.41 0c3.05.255 8.275 3.85 8.275 3.85s3.375-.655 3.5-.8c.146-.583.232-1.18.255-1.78 0 0-7.42-4.805-18.09-2.77Z" class="shade10"/>
    <path fill="#121212" d="M227.735 29.045 227.65 29c-.055-.035-5.21-3.56-8.155-3.805a45.444 45.444 0 0 0-6.37 0h-.34l.465-2 .16-.03c10.645-2.03 18.215 2.745 18.29 2.79l.125.08v.15c-.115 1.725-.265 1.875-.33 1.935-.065.06-.195.2-3.645.87l-.115.055Zm-11.135-4.47c.93 0 1.95.025 2.935.11 2.9.24 7.59 3.34 8.31 3.83 1.415-.28 2.945-.605 3.28-.725.092-.48.153-.967.18-1.455a26.614 26.614 0 0 0-17.645-2.675l-.235 1c.575-.025 1.765-.085 3.175-.085Z" class="shade90"/>
    <path fill="#e6eff9" d="M210.26 27.945a14.335 14.335 0 0 1 7.875-.255Z" class="shade10"/>
    <path fill="#121212" d="m210.355 28.175-.185-.465c.135-.055 3.43-1.32 8.025-.265l-.115.5a14.24 14.24 0 0 0-7.725.23Z" class="shade90"/>
    <path fill="#ffffff" d="M212.44 31.28a2.284 2.284 0 0 1 1.615-.685" class="shade0"/>
    <path fill="#121212" d="m212.635 31.44-.39-.315a2.5 2.5 0 0 1 1.795-.78l.03.5a2.002 2.002 0 0 0-1.435.595Z" class="shade90"/>
    <path fill="#ffffff" d="M217.445 30.795c.964.08 1.911.293 2.815.635Z" class="shade0"/>
    <path fill="#121212" d="M220.085 31.605a12.544 12.544 0 0 0-2.665-.565l.055-.5c1.2.125 2.755.5 2.96.705l-.35.36Zm24.255-.36s6.24-.795 8.42 1.6c2.18 2.395-.33 4.935-.33 4.935l-3.59.615-2.5-2.865m-19.51 59.735a49.07 49.07 0 0 1-12.46-1.61l.13-.5c16.905 4.42 29.53-1.735 29.655-1.795l.225.445c-.095.065-7.055 3.46-17.55 3.46Z" class="shade90"/>
    <path fill="#121212" d="m222.13 89.095-.4 4.61s3.555.685 6.35.215l2.795-.47-.615-4.79s-5.52.34-8.13.435Z" class="shade90"/>
    <path fill="#121212" d="M225.57 94.215a36.228 36.228 0 0 1-10.855-1.715l.165-.47c.08.03 8.09 2.825 15.945 1.19 7.855-1.635 11.39-3 11.425-3.035l.185.46c-.035 0-3.56 1.41-11.5 3.065-1.767.35-3.564.52-5.365.505Z" class="shade90"/>
    <path fill="#ffffff" d="m238.028 94.016-.379.327 10.259 11.905.378-.326-10.258-11.906Zm-19.432.404-7.359 10.061.404.295 7.358-10.061-.403-.295Zm21.114 63.28a76.343 76.343 0 0 1-13.42-1.2l.1-.5c.205.04 20.745 4.105 33.5-3.095l.245.435c-6.06 3.45-13.85 4.36-20.425 4.36Z" class="shade0"/>
    <path fill="#478cd6" fill-rule="evenodd" d="M165.04 68.845 146.67 55.44l-.015 44.215 18.385 13.655V68.845Z" class="shade50" clip-rule="evenodd"/>
    <path fill="#ffffff" fill-rule="evenodd" d="m148.63 66.645 4.27-.215 1.725-3.005 2.345.39 5.6 3.23 2.47 1.8V95.94l-.03.845-1.155 2.35-1.475-3.295-4.34 1.57-.53 2.43-.475 4.78-4.165-1.85-3.45-1.72-.59-2.83-1.025-3.875-.255-10.95.455-3.345-1.335-4.715 1.3-2.89.66-5.8Z" class="shade0" clip-rule="evenodd"/>
    <path fill="#ffffff" d="m165.04 106.95-.8-.64-.09-.07-.08-.145-3.805-6.725-2.57-3.17c-.305.725-.58 1.56-.85 2.4-.57 1.735-1.13 3.465-2 4.255-.625.56-1.38.08-2.145-.41-.615-.395-1.235-.79-1.76-.59a6.871 6.871 0 0 0-.805.38l-.625-.465a7.55 7.55 0 0 1 1.3-.665c.58-.225 1.23.19 1.88.605.65.415 1.43.915 2 .42.825-.745 1.37-2.42 1.92-4.105.25-.775.5-1.545.785-2.235l-1.325-1.635-.27-.34-.08-.68-.405-3.63-.945-2.66-.12-.34-.03-.385-.33-4.5-2.39-8.31-.065-.24-.03-.27-.965-9.86-.5-5.135.955.7.455 4.555.23 2.355.06.295a33.402 33.402 0 0 0 1.35 5.245 4.493 4.493 0 0 0 1.24 1.74 5.315 5.315 0 0 1 1.275 1.705 51.224 51.224 0 0 1 2.145 6 24.32 24.32 0 0 0 2.775 4.065 9.34 9.34 0 0 0 2.83 2.31 1.933 1.933 0 0 0 1.81-.155v.82a1.962 1.962 0 0 1-1.78.08 9.646 9.646 0 0 1-2.915-2.375 22.995 22.995 0 0 1-2.185-3.045c.04.13.085.26.125.39.085.255.175.525.27.795a16.15 16.15 0 0 1 .88 3.385c.145 1.225.275 2.5.33 3.765a17.81 17.81 0 0 1-.135 3.5c-.135.86-.5.97-.91 1.08l-.15.045 1.935 2.39.05.06.04.075 3.765 6.66.68.545v2.17l-.025-.01Zm-13.22-38.84.445 4.555L154.64 81l.08.28.025.305.325 4.405.93 2.62.1.285.04.33.36 3.275 1.59 1.965c.151-.105.32-.18.5-.22a.826.826 0 0 0 .74-.765 16.33 16.33 0 0 0 .115-3.195 48.868 48.868 0 0 0-.315-3.62 14.752 14.752 0 0 0-.795-3c-.095-.27-.185-.545-.275-.825l-.6-1.9v-.07l-.03-.055a50.32 50.32 0 0 0-2.1-5.875 4.835 4.835 0 0 0-1.15-1.5 5.078 5.078 0 0 1-1.395-2 23.65 23.65 0 0 1-.965-3.33Z" class="shade0"/>
    <path fill="#8ab6e5" fill-rule="evenodd" d="m162.475 78.85.97 3.865-.905.85-.92 1.455-1.065 3.12-1.595-3.26-1.02 3.965-1.775-3.15V83.13l-.78-1.235-1.09-4.66.04-2.22-.835-1.1-.77-1.935 1.575-1 1.365 1.7.435 2.36 1.545 1.38 2.965 1.71 1.86.72Z" class="shade40" clip-rule="evenodd"/>
    <path fill="#e6eff9" fill-rule="evenodd" d="m152.32 100.025.5 1.985-.465.435-.475.745-.095.28-3.22-2.395-.44-1.875.02-1.14-.425-.565-.395-.99.805-.515.7.87.225 1.21.79.71 1.52.875.955.37Z" class="shade10" clip-rule="evenodd"/>
    <path fill="#478cd6" d="M146.66 85.425a2.76 2.76 0 0 1 1.4.31c.59.3 1.115 0 1.59-.595.53-.729.983-1.511 1.35-2.335.38-.764.945-1.42 1.645-1.91a3.508 3.508 0 0 0 1.325-1.595c.157-.44.369-.858.63-1.245.21-.315.468-.595.765-.83 1.39-1.095 3.23-.685 4.705.11.17.09.445-.36.71-.8.35-.575.69-1.13 1-.74.88 1.055 1.565 1.685 2.23 1.955.316.128.66.175 1 .135v1.08a2.209 2.209 0 0 1-.945-.165c-.72-.285-1.445-.955-2.375-2.06-.105-.125-.36.3-.63.735-.32.53-.65 1.07-.975.905-1.42-.765-3.185-1.165-4.5-.12a3.365 3.365 0 0 0-.71.765 5.058 5.058 0 0 0-.565 1.12 3.808 3.808 0 0 1-1.445 1.785 4.847 4.847 0 0 0-1.555 1.775 13.078 13.078 0 0 1-1.4 2.43c-.535.655-1.135 1-1.825.645a2.64 2.64 0 0 0-1.44-.275l.015-1.08Z" class="shade50"/>
    <path fill="#121212" d="m165.29 113.81-18.885-14.025v-44.84l18.87 13.775.015 45.09Zm-18.385-14.28 17.885 13.285V69l-17.87-13.045-.015 43.575Z" class="shade90"/>
    <path fill="#478cd6" fill-rule="evenodd" d="m164.955 68.845 16.525-17.55.015 44.215-16.54 17.8V68.845Z" class="shade50" clip-rule="evenodd"/>
    <path fill="#ffffff" fill-rule="evenodd" d="m179.715 62.945-3.84.745-1.55-2.615-2.11.92-5.035 4.49-2.225 2.36V95.94l.025.835 1.04 2.095 1.33-3.635 3.905.595.475 2.31.425 4.67 3.745-2.785 3.11-2.495.53-2.97.92-4.105.23-11.005-.41-3.245 1.2-5.015-1.17-2.595-.595-5.65Z" class="shade0" clip-rule="evenodd"/>
    <path fill="#478cd6" d="M181.5 81.275a2.921 2.921 0 0 0-1.255.625c-.535.435-1 .245-1.435-.23a9.682 9.682 0 0 1-1.215-2.035 3.46 3.46 0 0 0-1.5-1.535 2.393 2.393 0 0 1-1.19-1.3 4.548 4.548 0 0 0-.565-1.105 2.512 2.512 0 0 0-.69-.66c-1.25-.78-2.905.045-4.23 1.175-.15.125-.395-.265-.635-.64-.315-.5-.62-.975-.915-.5-.795 1.255-1.41 2.04-2 2.455a1.95 1.95 0 0 1-.905.365v1.08c.308-.064.599-.192.855-.375.645-.455 1.3-1.285 2.135-2.6.09-.15.325.22.565.595.285.455.585.92.875.685 1.275-1.085 2.86-1.885 4.05-1.14.249.158.465.364.635.605.214.307.383.644.5 1 .227.637.693 1.16 1.3 1.46a3.26 3.26 0 0 1 1.395 1.43c.334.751.757 1.46 1.26 2.11.5.535 1 .74 1.645.235.373-.327.83-.544 1.32-.625v-1.075Z" class="shade50"/>
    <path fill="#121212" d="M164.705 113.95v-45.2l.07-.075 16.955-18v44.94l-.07.075-16.955 18.26Zm.5-45v43.73l16.04-17.265v-43.5l-16.04 17.035Z" class="shade90"/>
    <path fill="#478cd6" fill-rule="evenodd" d="M199.85 64.71 181.475 51.3l-.01 44.22 18.385 13.655V64.71Z" class="shade50" clip-rule="evenodd"/>
    <path fill="#ffffff" fill-rule="evenodd" d="m183.44 62.51 4.27-.22 1.725-3.005 2.345.39 5.595 3.23 2.475 1.805v27.095l-.03.84L198.665 95l-1.48-3.3-4.34 1.575-.525 2.43-.48 4.775-4.16-1.845-3.455-1.72-.59-2.835-1.02-3.875-.255-10.945.45-3.35-1.335-4.715 1.305-2.885.66-5.8Z" class="shade0" clip-rule="evenodd"/>
    <path fill="#ffffff" d="M193 91.795a6.059 6.059 0 0 1-1.09-2.71l-.585-.725-.365-3.265-.035-.33-.105-.29-.93-2.615-.325-4.41v-.305l-.08-.275-2.375-8.345-.45-4.555c.14.605.285 1.2.45 1.77-.07-.57-.11-1.14-.13-1.725a93.84 93.84 0 0 1-.525-2.435l-.055-.29-.235-2.36-.455-4.555-.955-.695.5 5.135.97 9.855v.27l.07.245 2.37 8.315L189 82l.03.39.12.335.945 2.665.405 3.61.075.685.275.335 1.32 1.635c-.28.69-.53 1.465-.78 2.235-.55 1.685-1.1 3.365-1.925 4.11-.545.5-1.26.035-1.975-.42-.715-.455-1.305-.835-1.88-.61a7.6 7.6 0 0 0-1.3.665l.625.47c.259-.145.528-.272.805-.38.5-.205 1.14.195 1.76.585.76.5 1.5.975 2.14.415.88-.79 1.445-2.5 2-4.26.275-.835.545-1.675.855-2.4l.5.635c.005-.305.005-.605.005-.905Z" class="shade0"/>
    <path fill="#e6eff9" fill-rule="evenodd" d="m187.13 95.89.495 1.98-.465.435-.47.745-.095.28-3.22-2.395-.44-1.875.02-1.14-.425-.565-.4-.99.81-.515.7.875.22 1.21.795.705 1.52.875.955.375Z" class="shade10" clip-rule="evenodd"/>
    <path fill="#121212" d="m200.1 109.67-18.885-14.025V50.81l18.87 13.775.015 45.085Zm-18.385-14.275 17.885 13.28v-43.84L181.725 51.79l-.01 43.605Z" class="shade90"/>
    <path fill="#478cd6" fill-rule="evenodd" d="m199.765 64.71 16.525-17.555.01 44.215-16.535 17.805V64.71Z" class="shade50" clip-rule="evenodd"/>
    <path fill="#ffffff" fill-rule="evenodd" d="m214.525 58.805-3.84.75-1.555-2.62-2.105.92-5.04 4.49-2.22 2.365v27.095l.025.835 1.04 2.09 1.33-3.63 3.9.595.475 2.31.43 4.67 3.745-2.785 3.105-2.5.53-2.97.92-4.105.23-11.005-.405-3.24 1.2-5.02-1.17-2.595-.595-5.65Z" class="shade0" clip-rule="evenodd"/>
    <path fill="#478cd6" d="M216.295 77.14a2.866 2.866 0 0 0-1.255.625c-.53.43-1 .24-1.435-.235a9.673 9.673 0 0 1-1.21-2.03 3.5 3.5 0 0 0-1.5-1.54 2.406 2.406 0 0 1-1.195-1.295 4.598 4.598 0 0 0-.565-1.1 2.584 2.584 0 0 0-.69-.66 2.445 2.445 0 0 0-2.225-.08c.309.275.603.567.88.875.398-.02.793.079 1.135.285.245.163.46.368.635.605.211.309.379.645.5 1a2.66 2.66 0 0 0 1.305 1.465c.601.32 1.088.817 1.395 1.425a9.87 9.87 0 0 0 1.26 2.11c.5.535 1 .745 1.645.235.368-.312.814-.52 1.29-.6l.03-1.085Z" class="shade50"/>
    <path fill="#121212" d="M199.5 109.81v-45.2l.065-.07 16.96-18v44.945l-.065.07-16.96 18.255Zm.5-45v43.73l16.035-17.265v-43.5L200 64.81Z" class="shade90"/>
    <path fill="#ffffff" d="M218.1 57.7s-.87-3.945-1.17-6.065c-.3-2.12-.24-3.355-.725-3.46-.4-.085-1.825.7-1.625 4.2.034.268.095.533.18.79" class="shade0"/>
    <path fill="#121212" d="M217.86 57.755c0-.04-.88-4-1.18-6.085-.085-.615-.14-1.155-.19-1.615-.08-.75-.17-1.6-.335-1.635a.673.673 0 0 0-.42.21c-.32.28-1.05 1.205-.905 3.73.017.17.052.338.105.5.025.08.05.165.07.245l-.5.115a1.684 1.684 0 0 0-.06-.22 3.145 3.145 0 0 1-.125-.615c-.15-2.67.615-3.745 1.09-4.15a1.07 1.07 0 0 1 .84-.31c.5.115.595.81.725 2.075.05.455.105 1 .19 1.595.295 2.085 1.16 6 1.17 6.05l-.475.11Z" class="shade90"/>
    <path fill="#ffffff" d="M146.145 67.56a1.127 1.127 0 0 1 .905-.435c.705 0 2.125.07 2.66.65.725.78-2.125 1.195-3.23.635-.555-.285-.51-.6-.335-.85Z" class="shade0"/>
    <path fill="#121212" d="M147.905 68.92a3.558 3.558 0 0 1-1.54-.29.992.992 0 0 1-.57-.6.727.727 0 0 1 .15-.615 1.373 1.373 0 0 1 1.105-.54c.805 0 2.25.09 2.845.73a.542.542 0 0 1 .07.73c-.28.37-1.175.585-2.06.585Zm-1.555-1.21a.26.26 0 0 0-.07.2c0 .085.135.185.315.275a4.165 4.165 0 0 0 2.755 0c.17-.075.225-.14.225-.16a.179.179 0 0 0-.05-.07c-.33-.36-1.265-.585-2.475-.57a.868.868 0 0 0-.7.325Z" class="shade90"/>
    <path fill="#ffffff" d="M145.78 74.845a.906.906 0 0 1 .655-.265c.57 0 1.77.04 2.22.5.595.595-1.745.91-2.655.5-.5-.27-.405-.54-.22-.735Z" class="shade0"/>
    <path fill="#121212" d="M147.175 76a3.241 3.241 0 0 1-1.28-.215.795.795 0 0 1-.5-.535.641.641 0 0 1 .215-.565 1.154 1.154 0 0 1 .835-.345c.83 0 1.915.085 2.395.56a.458.458 0 0 1 .085.615c-.235.31-1.005.485-1.75.485Zm-.675-1.17h-.055a.665.665 0 0 0-.5.19c-.07.075-.085.12-.08.13.005.01.05.09.225.17a3.5 3.5 0 0 0 2.37-.07c-.29-.25-1.015-.42-1.96-.42Z" class="shade90"/>
    <path fill="#ffffff" d="M144.345 69.675a1.427 1.427 0 0 1 1.165-.555c.9 0 2.69.09 3.37.825.925 1-2.7 1.5-4.11.805-.705-.355-.65-.75-.425-1.075Z" class="shade0"/>
    <path fill="#121212" d="M146.575 71.325a4.534 4.534 0 0 1-1.92-.35 1.182 1.182 0 0 1-.69-.725.864.864 0 0 1 .18-.725 1.687 1.687 0 0 1 1.365-.655h.025c1 0 2.8.12 3.53.9a.612.612 0 0 1 .085.845c-.34.455-1.47.71-2.575.71Zm-1.035-1.955h-.04a1.164 1.164 0 0 0-.96.45.41.41 0 0 0-.085.146.401.401 0 0 0-.015.169c.03.13.18.265.435.395 1.095.555 3.5.255 3.87-.215.025-.035.055-.08-.06-.2-.425-.475-1.575-.745-3.145-.745Z" class="shade90"/>
    <path fill="#ffffff" d="M144.455 71.635a1.414 1.414 0 0 1 1.165-.555c.9 0 2.69.09 3.37.82.925 1-2.7 1.5-4.11.81-.705-.355-.655-.76-.425-1.075Z" class="shade0"/>
    <path fill="#121212" d="M146.685 73.285a4.528 4.528 0 0 1-1.92-.35 1.18 1.18 0 0 1-.69-.725.854.854 0 0 1 .18-.725 1.667 1.667 0 0 1 1.39-.655c1 0 2.8.12 3.5.9a.61.61 0 0 1 .09.845c-.315.45-1.445.71-2.55.71Zm-1.035-1.955a1.202 1.202 0 0 0-1 .45.4.4 0 0 0-.095.315c.03.13.18.265.435.395 1.09.555 3.5.255 3.865-.215.03-.035.06-.08-.055-.2-.435-.475-1.585-.745-3.15-.745Zm48.355 205.26-8.955-2.28.125-.485 6.43 1.64-3.55-2.585 8.595-.075.005.5-7.08.065 4.43 3.22Zm65.08-2.995-.025-.5 6.69-.375-6.025-.925 3.02-1.365.205.455-1.48.67 9.075 1.395-11.46.645Z" class="shade90"/>
    <path fill="#ffffff" d="M239.09 49.935s-2.225-.58-6.39 6.5c-4.165 7.08 7.26 24.095 10.645 25.935 3.385 1.84 3.5-3.58 3.5-3.58s-4.84-12.095-9.195-19.355 9.1-6.29 9.1-6.29" class="shade0"/>
    <path fill="#ffffff" d="M246.83 78.775s-4.84-12.095-9.195-19.355 9.1-6.29 9.1-6.29" class="shade0"/>
    <path fill="#121212" d="M246.6 78.87c-.05-.12-4.885-12.165-9.175-19.32-1-1.675-1.175-3.08-.5-4.18 1.86-3 9.5-2.5 9.825-2.5l-.035.5c-.075 0-7.66-.5-9.365 2.255-.57.925-.4 2.155.5 3.655 4.315 7.195 9.165 19.27 9.215 19.395l-.465.195Z" class="shade90"/>
    <path fill="#ffffff" d="M239.09 49.935s-2.225-.58-6.39 6.5c-4.165 7.08 7.26 24.095 10.645 25.935" class="shade0"/>
    <path fill="#121212" d="M243.23 82.575c-2.4-1.3-8.86-10.195-11-17.865-1-3.61-.92-6.445.24-8.415 4.14-7.03 6.425-6.67 6.665-6.6l-.115.5c-.025 0-2.165-.345-6.12 6.365-1.09 1.855-1.155 4.555-.19 8.03 2.095 7.56 8.405 16.295 10.74 17.56l-.22.425ZM248.915 32l-.5-.08a11.321 11.321 0 0 0-.16-3.815c-.59-2.585-2.115-4.17-4.535-4.705-5.92-1.315-11.265 2.435-11.32 2.5l-.29-.41c.055-.04 5.58-3.92 11.715-2.555 6.265 1.34 5.105 8.965 5.09 9.065ZM257 44.585l-.5-.04c.215-2.435-.285-4.39-1.5-5.805a6.96 6.96 0 0 0-4.29-2.25l.04-.5a7.286 7.286 0 0 1 4.625 2.415c1.31 1.53 1.85 3.595 1.625 6.18Z" class="shade90"/>
    <path fill="#121212" d="m251.18 31.795-.475-.155c0-.035 1.135-3.6-.565-6.5-1.045-1.78-2.94-2.955-5.63-3.5-8.875-1.76-12.405 3.965-12.44 4l-.43-.255c.035-.06 3.755-6.08 12.965-4.255 2.84.565 4.845 1.82 5.97 3.73 1.81 3.14.655 6.78.605 6.935Z" class="shade90"/>
    <path fill="#ffffff" d="M241.87 54.75s2.4.82 2.91 6.895c.51 6.075-13.42 26.695-18.71 29.615-5.29 2.92-12.165-30.375-12.165-30.375l4.035-4 7.95 20.965s6.11-21 13.145-23.9" class="shade0"/>
    <path fill="#121212" d="M225.395 91.69a1.825 1.825 0 0 1-.755-.175c-5.1-2.35-10.74-29.425-11-30.58l-.025-.13 4.405-4.345 7.825 20.635c.5-1.62 1.855-5.81 3.73-10.18 3.22-7.5 6.365-11.94 9.345-13.175l.195.46c-6.85 2.845-12.94 23.53-13 23.74l-.205.72-8.08-21.305-3.665 3.615c.44 2.095 5.97 27.925 10.67 30.09a1.137 1.137 0 0 0 1.095 0c5.3-2.925 19.07-23.62 18.585-29.375C244.03 55.93 241.81 55 241.79 55l.16-.5c.105.035 2.56.945 3.08 7.11.5 6.05-13.305 26.795-18.84 29.85-.24.145-.514.224-.795.23Z" class="shade90"/>
    <path fill="#ffffff" d="M220.31 63.305A20.31 20.31 0 0 0 217.19 55c-2.62-3.75-8.27-7.29-10.5-7.665-.715-.12-.5.79.39 1.765 1.83 2 6.19 5.16 6.19 5.16s-.27-.11-4 2.5c-.305.21-.375.79-.325 1.465a6.93 6.93 0 0 0 2.28 4.625c.69.635 1.47 1.335 2.05 1.84 1.33 1.15 2.92 4.04 2.92 4.04" class="shade0"/>
    <path fill="#121212" d="M215.965 68.83c0-.03-1.58-2.865-2.865-3.97a87.32 87.32 0 0 1-2.055-1.845 7.135 7.135 0 0 1-2.36-4.79c-.06-.895.08-1.445.43-1.69a37.388 37.388 0 0 1 3.655-2.365c-1.085-.805-4.325-3.26-5.865-4.925-.54-.585-1.08-1.44-.82-1.925a.563.563 0 0 1 .655-.255c2.34.395 8.045 4.03 10.655 7.77a20.434 20.434 0 0 1 3.165 8.445l-.5.055c0-.045-.53-4.565-3.075-8.215-2.545-3.65-8.07-7.18-10.33-7.56a.225.225 0 0 0-.135 0c-.05.085.085.625.75 1.345 1.795 1.94 6.11 5.095 6.155 5.125l1.68 1.225-1.85-.76c-.18.065-.96.43-3.855 2.45-.085.06-.28.3-.215 1.245a6.643 6.643 0 0 0 2.195 4.455c.87.795 1.56 1.415 2.05 1.835 1.35 1.165 2.905 4 2.975 4.105l-.44.245Z" class="shade90"/>
    <path fill="#ffffff" d="M213.625 53.73s-6.05-3.32-6.5-2.5c-1.175 2.1 5.645 4.725 5.645 4.725" class="shade0"/>
    <path fill="#121212" d="M212.68 56.175c-.21-.08-5.145-2-5.855-3.955a1.3 1.3 0 0 1 .08-1.12c.475-.85 4 .84 6.84 2.41l-.245.44c-2.635-1.45-5.745-2.845-6.175-2.59a.847.847 0 0 0-.03.69c.525 1.45 4.195 3.135 5.565 3.66l-.18.465Z" class="shade90"/>
    <path fill="#ffffff" d="M212.89 55.915s-6.54-3.155-7-2.345c-.41.735.57 2.28 1.5 3 .115.09.215-.58.34-.5a22.715 22.715 0 0 0 4.295 2.075" class="shade0"/>
    <path fill="#121212" d="M211.95 58.37a23.691 23.691 0 0 1-4.15-1.975c-.07.19-.13.355-.295.405l-.12.035-.13-.085c-.955-.72-2.07-2.405-1.57-3.305.5-.9 4.24.76 7.32 2.245l-.22.45c-2.87-1.385-6.24-2.705-6.68-2.43-.275.5.445 1.76 1.245 2.47.065-.175.13-.32.285-.37l.115-.035.135.07a22.251 22.251 0 0 0 4.24 2.05l-.175.475Z" class="shade90"/>
    <path fill="#ffffff" d="M211.94 58.105s-6.05-2.635-6.5-1.825a2.303 2.303 0 0 0 .265 2.14c.09.09.325-.57.44-.5a22.005 22.005 0 0 0 4.73 2.58" class="shade0"/>
    <path fill="#121212" d="M210.78 60.755a22.644 22.644 0 0 1-4.63-2.5l-.03.055c-.11.185-.2.33-.365.355h-.12l-.11-.095a2.503 2.503 0 0 1-.31-2.44c.5-.875 4.5.7 6.825 1.72l-.2.455c-2.69-1.165-5.82-2.22-6.195-1.92a2.256 2.256 0 0 0 .075 1.605c.095-.165.19-.3.345-.33h.11l.12.075a22.218 22.218 0 0 0 4.665 2.55l-.18.47Z" class="shade90"/>
  </g>
</svg>